#!OML:ASF H:\Terrain\Patient Classification 1\Walking\liu\liu.ASF
:FULLY-SPECIFIED
:DEGREES
501
root 21.212000 33.799198 68.169998 11.609000 9.789960 9.885640
lowerback -14.798920 -10.551380 -11.702400
upperback 0.897350 -13.195120 3.319500
thorax 10.949500 -6.904780 8.334160
lowerneck -47.436001 -5.698840 -20.992201
upperneck 48.652199 -6.715980 22.122200
head 24.729200 -2.035360 10.892780
rclavicle 0.000000 -0.000000
rhumerus -98.990997 10.608120 -166.575607
rradius 64.570198
rwrist -32.830601
rhand -58.894402 -40.974998
rfingers 14.250040
rthumb -5.567140 -100.898201
lclavicle 0.000000 -0.000000
lhumerus -31.979799 -48.987400 177.502396
lradius 71.265602
lwrist 15.174720
lhand -24.641800 -51.846401
lfingers 14.250040
lthumb 27.495600 7.205320
rfemur -84.538399 17.726061 22.409800
rtibia 55.573002
rfoot -49.132999 -26.562201
rtoes -52.581600
lfemur 39.099998 2.230720 -55.257599
ltibia 0.000000
lfoot -32.929001 7.358280
ltoes -5.673320
502
root 21.183201 33.710999 68.553398 11.717000 9.606060 10.896860
lowerback -15.225680 -10.500120 -12.409720
upperback 1.000732 -13.009400 2.857480
thorax 11.302780 -6.833600 8.226080
lowerneck -47.494400 -5.649420 -20.497000
upperneck 48.136799 -6.678980 21.749800
head 24.516199 -2.013880 10.639360
rclavicle -0.000000 -0.000000
rhumerus -99.098801 9.488180 -166.069000
rradius 63.582600
rwrist -31.814800
rhand -57.716202 -40.321800
rfingers 14.250040
rthumb -4.429300 -100.258400
lclavicle -0.000000 -0.000000
lhumerus -33.695400 -50.530998 178.490601
lradius 70.928398
lwrist 15.962780
lhand -22.115801 -51.283001
lfingers 14.250040
lthumb 29.929399 7.595780
rfemur -84.203003 15.529920 22.900600
rtibia 57.000198
rfoot -49.132999 -26.562201
rtoes -52.581600
lfemur 40.553001 2.226620 -56.035400
ltibia 0.000000
lfoot -33.162201 6.348540
ltoes -2.400700
503
root 21.125401 33.644001 68.893799 11.544720 9.407360 11.780700
lowerback -14.606960 -10.579800 -13.531700
upperback 0.934050 -13.043480 2.582300
thorax 10.984740 -6.869920 8.608940
lowerneck -47.360401 -5.178560 -19.499380
upperneck 47.589001 -6.175100 21.128799
head 24.179399 -1.773744 10.277880
rclavicle -0.000000 -0.000000
rhumerus -98.970398 9.260220 -166.033600
rradius 61.829601
rwrist -31.282600
rhand -57.811401 -44.561401
rfingers 14.250040
rthumb -4.521300 -104.496803
lclavicle -0.000000 -0.000000
lhumerus -35.921200 -51.942600 179.796799
lradius 69.355797
lwrist 12.438480
lhand -26.186800 -53.059601
lfingers 14.250040
lthumb 26.006399 6.089980
rfemur -84.176003 14.555600 23.090599
rtibia 58.637001
rfoot -49.132999 -26.562201
rtoes -52.581600
lfemur 41.823002 2.278540 -56.602600
ltibia 0.000000
lfoot -32.408798 6.365520
ltoes -2.556040
504
root 21.066601 33.626400 69.239197 11.563420 9.557420 11.442020
lowerback -14.239540 -10.593560 -13.264320
upperback 0.729480 -13.120940 2.691460
thorax 10.553220 -6.887300 8.607960
lowerneck -47.418800 -5.272320 -19.911880
upperneck 47.423199 -6.327660 21.785400
head 24.166800 -1.793058 10.576220
rclavicle -0.000000 0.000000
rhumerus -99.172401 8.662980 -165.720795
rradius 60.341599
rwrist -30.521200
rhand -58.495998 -49.752399
rfingers 14.250040
rthumb -5.182460 -109.680397
lclavicle -0.000000 0.000000
lhumerus -37.016998 -50.099201 180.379395
lradius 69.411598
lwrist 15.569580
lhand -27.817600 -53.229401
lfingers 14.250040
lthumb 24.434200 6.017060
rfemur -84.568001 13.619140 24.517000
rtibia 60.757599
rfoot -49.132999 -26.562201
rtoes -52.581600
lfemur 42.906799 2.067540 -55.952801
ltibia -0.000000
lfoot -31.298401 7.845900
ltoes -11.733320
505
root 21.009001 33.640800 69.624802 12.172960 10.064080 9.433300
lowerback -15.114200 -10.593200 -11.084920
upperback 0.491784 -13.289680 3.290040
thorax 10.633680 -6.915800 7.942600
lowerneck -47.223999 -5.450420 -20.693399
upperneck 46.901600 -6.520500 22.662600
head 23.984400 -1.840426 10.998780
rclavicle 0.000000 -0.000000
rhumerus -99.517601 7.582340 -164.931198
rradius 59.328999
rwrist -29.211000
rhand -56.641800 -53.231201
rfingers 14.250040
rthumb -3.391600 -113.177200
lclavicle 0.000000 -0.000000
lhumerus -38.423599 -50.674599 181.328003
lradius 68.692398
lwrist 16.437099
lhand -25.971399 -53.232601
lfingers 14.250040
lthumb 26.214001 5.903680
rfemur -85.333603 12.707000 27.443600
rtibia 62.456001
rfoot -49.132999 -26.562201
rtoes -52.581600
lfemur 43.586601 1.532352 -53.433800
ltibia 0.000000
lfoot -30.321600 8.538160
ltoes -19.043280
506
root 20.952999 33.618599 69.971802 11.869840 9.969880 10.601940
lowerback -14.225040 -10.436000 -12.339700
upperback 0.298670 -13.015140 3.052240
thorax 10.013020 -6.792720 8.515140
lowerneck -47.373199 -5.835500 -20.912001
upperneck 46.585800 -6.940360 22.634800
head 23.952801 -2.046620 10.941480
rclavicle 0.000000 0.000000
rhumerus -100.130997 6.717860 -163.965805
rradius 58.771000
rwrist -28.519199
rhand -53.073200 -54.824200
rfingers 14.250040
rthumb 0.054939 -114.783798
lclavicle 0.000000 0.000000
lhumerus -40.608799 -52.522999 183.235199
lradius 66.924400
lwrist 11.437780
lhand -24.026400 -51.546001
lfingers 14.250040
lthumb 28.088600 7.464940
rfemur -85.406601 11.668700 26.973600
rtibia 64.322197
rfoot -49.132999 -26.562201
rtoes -52.581600
lfemur 45.173199 1.455426 -54.299198
ltibia 0.000000
lfoot -29.202400 8.403020
ltoes -21.429399
507
root 20.917801 33.603401 70.361198 11.693720 9.929740 9.926100
lowerback -14.170880 -10.106040 -11.410460
upperback 0.188809 -12.668900 3.292520
thorax 9.746980 -6.593640 8.312640
lowerneck -46.771400 -5.580320 -20.193199
upperneck 46.424198 -6.436340 21.060200
head 23.659000 -1.969092 10.266360
rclavicle 0.000000 -0.000000
rhumerus -100.782799 5.573600 -162.741592
rradius 58.363998
rwrist -27.904400
rhand -53.903198 -53.174599
rfingers 14.250040
rthumb -0.746612 -113.133400
lclavicle 0.000000 -0.000000
lhumerus -41.949001 -49.898998 184.470398
lradius 66.653000
lwrist 11.503340
lhand -17.815540 -49.575600
lfingers 14.250040
lthumb 34.070400 8.970620
rfemur -85.196404 9.851960 29.043400
rtibia 66.298599
rfoot -49.132999 -26.562201
rtoes -52.581600
lfemur 46.684399 1.455384 -53.275200
ltibia -0.000000
lfoot -28.407600 8.515100
ltoes -26.400999
508
root 20.891600 33.574600 70.743401 12.237960 9.421000 9.409980
lowerback -14.854880 -9.952520 -10.703900
upperback 0.093900 -12.500300 3.570160
thorax 9.965560 -6.498260 8.182580
lowerneck -47.879799 -6.202540 -21.214399
upperneck 46.631802 -7.038560 21.742399
head 24.068199 -2.221060 10.632300
rclavicle -0.000000 -0.000000
rhumerus -100.478996 4.377340 -161.410995
rradius 56.966599
rwrist -26.134399
rhand -57.139400 -49.035599
rfingers 14.250040
rthumb -3.872200 -108.977402
lclavicle -0.000000 -0.000000
lhumerus -43.538799 -47.468201 185.683197
lradius 65.739197
lwrist 13.007440
lhand -19.405640 -50.701599
lfingers 14.250040
lthumb 32.539600 7.973200
rfemur -85.924400 8.194700 30.892799
rtibia 68.404602
rfoot -49.132999 -26.562201
rtoes -52.581600
lfemur 47.414200 1.833206 -52.525600
ltibia -0.000000
lfoot -27.448400 8.594320
ltoes -32.421799
509
root 20.842199 33.555599 71.043999 12.555180 8.661660 10.043460
lowerback -14.023880 -9.741620 -11.482480
upperback -0.263360 -12.201180 3.514760
thorax 9.165160 -6.343400 8.683640
lowerneck -48.813999 -6.373820 -21.553400
upperneck 46.813202 -7.188880 22.156799
head 24.358000 -2.244780 10.849800
rclavicle 0.000000 -0.000000
rhumerus -100.144997 3.389040 -160.450806
rradius 54.904202
rwrist -24.278200
rhand -57.805599 -45.286598
rfingers 14.250040
rthumb -4.515740 -105.222198
lclavicle 0.000000 -0.000000
lhumerus -44.971001 -44.539600 186.218597
lradius 64.348999
lwrist 9.246280
lhand -21.139799 -51.951199
lfingers 14.250040
lthumb 30.869600 6.856300
rfemur -86.679001 7.690980 30.995001
rtibia 70.159599
rfoot -49.132999 -26.562201
rtoes -52.581600
lfemur 48.020000 2.390560 -52.960999
ltibia -0.000000
lfoot -25.610399 8.980880
ltoes -38.197399
